<svg width="103" height="124" viewBox="0 0 103 124" fill="none" xmlns="http://www.w3.org/2000/svg">
<path d="M11.6 37.1C11.6 33.6333 12.8 30.8667 15.2 28.8C17.6667 26.6667 21.2 25.6 25.8 25.6C28.3333 25.6 31.1667 26 34.3 26.8L32.1 35.2C31.1667 34.8667 30.3333 34.6333 29.6 34.5C28.9333 34.3667 28.3 34.3 27.7 34.3C26.7667 34.3 26 34.4667 25.4 34.8C24.8 35.0667 24.3 35.4333 23.9 35.9C23.5667 36.3667 23.3333 36.8667 23.2 37.4C23.0667 37.8667 23 38.3 23 38.7C23 41.7 23.2 44.7 23.6 47.7C24.0667 50.6333 24.3 53.4 24.3 56C24.3 57.4667 24.2 58.9 24 60.3C23.8 61.6333 23.4 62.9667 22.8 64.3C22.2667 65.5667 21.4333 66.8333 20.3 68.1C19.2333 69.3 17.8 70.4333 16 71.5C17.8 72.5667 19.2333 73.7 20.3 74.9C21.4333 76.1 22.2667 77.3667 22.8 78.7C23.4 79.9667 23.8 81.3 24 82.7C24.2 84.0333 24.3 85.4 24.3 86.8C24.3 89.4 24.0667 92.2 23.6 95.2C23.2 98.1333 23 101.1 23 104.1C23 104.5 23.0667 104.967 23.2 105.5C23.3333 106.033 23.5667 106.5 23.9 106.9C24.3 107.367 24.8 107.733 25.4 108C26 108.333 26.7667 108.5 27.7 108.5C28.3 108.5 28.9333 108.433 29.6 108.3C30.3333 108.167 31.1667 107.933 32.1 107.6L34.3 116C31.1667 116.8 28.3333 117.2 25.8 117.2C21.2 117.2 17.6667 116.133 15.2 114C12.8 111.933 11.6 109.167 11.6 105.7C11.6 102.1 11.8333 98.5667 12.3 95.1C12.7667 91.6333 13 88.4 13 85.4C13 82.8 12.4 80.6333 11.2 78.9C10.0667 77.1667 8.33333 76.0333 6 75.5V67.3C8.33333 66.7667 10.0667 65.6333 11.2 63.9C12.4 62.1667 13 60 13 57.4C13 54.4 12.7667 51.1667 12.3 47.7C11.8333 44.2333 11.6 40.7 11.6 37.1ZM86.6141 37.1C86.6141 40.7 86.3807 44.2333 85.9141 47.7C85.4474 51.1667 85.2141 54.4 85.2141 57.4C85.2141 60 85.7807 62.1667 86.9141 63.9C88.1141 65.6333 89.8807 66.7667 92.2141 67.3V75.5C89.8807 76.0333 88.1141 77.1667 86.9141 78.9C85.7807 80.6333 85.2141 82.8 85.2141 85.4C85.2141 88.4 85.4474 91.6333 85.9141 95.1C86.3807 98.5667 86.6141 102.1 86.6141 105.7C86.6141 109.167 85.4141 111.933 83.0141 114C80.6141 116.133 77.1141 117.2 72.5141 117.2C69.9807 117.2 67.1141 116.8 63.9141 116L66.2141 107.6C68.0141 108.2 69.4807 108.5 70.6141 108.5C71.5474 108.5 72.3141 108.333 72.9141 108C73.5141 107.733 73.9807 107.367 74.3141 106.9C74.7141 106.5 74.9807 106.033 75.1141 105.5C75.2474 104.967 75.3141 104.5 75.3141 104.1C75.3141 101.1 75.0807 98.1333 74.6141 95.2C74.2141 92.2 74.0141 89.4 74.0141 86.8C74.0141 85.4 74.1141 84.0333 74.3141 82.7C74.5141 81.3 74.8807 79.9667 75.4141 78.7C76.0141 77.3667 76.8474 76.1 77.9141 74.9C79.0474 73.7 80.5141 72.5667 82.3141 71.5C80.5141 70.4333 79.0474 69.3 77.9141 68.1C76.8474 66.8333 76.0141 65.5667 75.4141 64.3C74.8807 62.9667 74.5141 61.6333 74.3141 60.3C74.1141 58.9 74.0141 57.4667 74.0141 56C74.0141 53.4 74.2141 50.6333 74.6141 47.7C75.0807 44.7 75.3141 41.7 75.3141 38.7C75.3141 38.3 75.2474 37.8667 75.1141 37.4C74.9807 36.8667 74.7141 36.3667 74.3141 35.9C73.9807 35.4333 73.5141 35.0667 72.9141 34.8C72.3141 34.4667 71.5474 34.3 70.6141 34.3C69.4807 34.3 68.0141 34.6 66.2141 35.2L63.9141 26.8C67.1141 26 69.9807 25.6 72.5141 25.6C77.1141 25.6 80.6141 26.6667 83.0141 28.8C85.4141 30.8667 86.6141 33.6333 86.6141 37.1Z" fill="#7776FE"/>
<path d="M36.6028 63.2833C37.1069 63.1241 37.4 62.6001 37.2718 62.0872L37.0552 61.2208C37.0197 61.0787 36.9325 60.955 36.8106 60.8738L36.7481 60.8321C35.9683 60.3122 35.5 59.4371 35.5 58.5V58.5V58.5C35.5 57.1306 36.6101 56 37.9795 56V56C37.9931 56 38.0068 56.0011 38.0202 56.0034L38.4082 56.068C43.9789 56.9965 43.9789 65.0035 38.4082 65.932L38.0816 65.9864C38.0273 65.9954 37.9723 66 37.9172 66H34.4875C33.3439 66 33.0959 64.3908 34.1863 64.0464L36.6028 63.2833Z" fill="#6463FF"/>
<path d="M58 77H68V80H58V78.5V77Z" fill="#6463FF"/>
<path d="M58 82H68V85H58V83.5V82Z" fill="#6463FF"/>
<rect x="58" y="66" width="10" height="10" fill="#6463FF" fill-opacity="0.4"/>
<rect x="48" y="86" width="10" height="10" fill="#6463FF" fill-opacity="0.7"/>
<rect x="38" y="86" width="10" height="10" fill="#6463FF" fill-opacity="0.6"/>
<rect x="28" y="76" width="10" height="10" fill="#6463FF" fill-opacity="0.5"/>
<rect x="28" y="66" width="10" height="10" fill="#6463FF" fill-opacity="0.4"/>
<rect x="58" y="56" width="10" height="10" fill="#6463FF" fill-opacity="0.5"/>
<rect x="48" y="46" width="10" height="10" fill="#6463FF" fill-opacity="0.6"/>
<rect x="38" y="46" width="10" height="10" fill="#6463FF" fill-opacity="0.7"/>
</svg>
